<?xml version="1.0" standalone="no"?>
<!DOCTYPE svg PUBLIC "-//W3C//DTD SVG 20010904//EN"
 "http://www.w3.org/TR/2001/REC-SVG-20010904/DTD/svg10.dtd">
<svg version="1.0" xmlns="http://www.w3.org/2000/svg"
 width="82.000000pt" height="26.000000pt" viewBox="0 0 82.000000 26.000000"
 preserveAspectRatio="xMidYMid meet">

<g transform="translate(0.000000,26.000000) scale(0.100000,-0.100000)"
fill="#000000" stroke="none">
<path d="M122 211 c-18 -11 127 -21 205 -14 34 3 60 10 57 14 -7 11 -245 11
-262 0z"/>
<path d="M725 131 c11 -19 -158 -61 -243 -61 -45 0 -84 -4 -87 -10 -4 -6 5
-10 19 -10 14 0 26 -4 26 -10 0 -16 -47 -12 -122 11 -100 29 -94 18 8 -15 l85
-27 64 20 c47 15 90 21 162 21 60 0 93 4 87 9 -5 6 -29 11 -54 13 l-45 3 73
25 c54 18 68 26 55 31 -26 11 -35 10 -28 0z"/>
<path d="M254 116 c11 -9 31 -16 45 -15 24 1 24 2 -5 8 -17 4 -37 11 -45 15
-8 4 -5 0 5 -8z"/>
<path d="M415 110 c-4 -6 27 -10 85 -10 58 0 89 4 85 10 -3 6 -42 10 -85 10
-43 0 -82 -4 -85 -10z"/>
</g>
</svg>
